<?xml version="1.0" encoding="UTF-8"?><svg id="Ebene_2" xmlns="http://www.w3.org/2000/svg" viewBox="0 0 508.43 252.35"><defs><style>.cls-1{fill:#fff;}</style></defs><g id="Ebene_1-2"><path class="cls-1" d="M67.85,129.38h-6.39v-24.16c-2.33,2.19-5.08,3.81-8.25,4.86v-5.83c1.67-.54,3.48-1.58,5.43-3.11,1.96-1.52,3.29-3.3,4.02-5.33h5.18v33.55Z"/><path class="cls-1" d="M84.52,101.14c-.76,0-1.45,.25-2.04,.75-.6,.49-1.06,1.37-1.39,2.66-.43,1.65-.65,4.45-.65,8.37s.19,6.63,.58,8.09c.39,1.47,.88,2.45,1.47,2.94,.59,.49,1.27,.73,2.03,.73s1.44-.25,2.04-.75c.59-.49,1.06-1.37,1.38-2.66,.44-1.64,.65-4.43,.65-8.36s-.19-6.62-.58-8.09c-.39-1.47-.88-2.45-1.47-2.94-.59-.5-1.27-.75-2.03-.75m0-5.31c3.23,0,5.76,1.16,7.58,3.47,2.17,2.73,3.25,7.28,3.25,13.62s-1.1,10.88-3.28,13.65c-1.81,2.28-4.33,3.43-7.56,3.43s-5.86-1.25-7.85-3.75c-1.99-2.5-2.98-6.97-2.98-13.38s1.09-10.84,3.28-13.6c1.81-2.28,4.33-3.43,7.56-3.43Z"/><path class="cls-1" d="M110.44,101.14c-.76,0-1.44,.25-2.03,.75-.6,.49-1.06,1.37-1.39,2.66-.43,1.65-.65,4.45-.65,8.37s.19,6.63,.58,8.09c.39,1.47,.88,2.45,1.47,2.94,.59,.49,1.27,.73,2.03,.73s1.45-.25,2.04-.75c.59-.49,1.06-1.37,1.38-2.66,.43-1.64,.65-4.43,.65-8.36s-.19-6.62-.58-8.09c-.39-1.47-.88-2.45-1.47-2.94-.59-.5-1.27-.75-2.03-.75m0-5.31c3.23,0,5.76,1.16,7.58,3.47,2.17,2.73,3.25,7.28,3.25,13.62s-1.09,10.88-3.28,13.65c-1.81,2.28-4.33,3.43-7.56,3.43s-5.86-1.25-7.85-3.75c-1.99-2.5-2.98-6.97-2.98-13.38s1.1-10.84,3.28-13.6c1.81-2.28,4.33-3.43,7.56-3.43Z"/><path class="cls-1" d="M14.59,139.58h6.76v21.14c0,2.77-.24,4.89-.73,6.38-.65,1.94-1.83,3.5-3.55,4.68-1.71,1.17-3.97,1.76-6.78,1.76-3.29,0-5.83-.92-7.6-2.76-1.78-1.84-2.67-4.54-2.69-8.1l6.38-.75c.08,1.9,.35,3.25,.83,4.03,.72,1.2,1.82,1.79,3.29,1.79s2.54-.43,3.15-1.29c.61-.85,.92-2.63,.92-5.34v-21.57Z"/><path class="cls-1" d="M41.81,161.39c-.82,.27-2.11,.6-3.89,.98-1.77,.38-2.94,.75-3.48,1.11-.83,.6-1.25,1.34-1.25,2.25s.33,1.67,1,2.32c.67,.65,1.51,.98,2.55,.98,1.15,0,2.25-.38,3.3-1.13,.77-.58,1.28-1.28,1.52-2.12,.16-.54,.25-1.58,.25-3.11v-1.27Zm-8.58-5.17l-5.78-1.03c.65-2.36,1.78-4.11,3.37-5.24,1.59-1.13,3.96-1.7,7.1-1.7,2.85,0,4.98,.33,6.38,1.01,1.39,.68,2.38,1.53,2.94,2.57,.57,1.04,.85,2.94,.85,5.72l-.09,7.46c0,2.12,.1,3.69,.3,4.7,.2,1.01,.58,2.09,1.14,3.24h-6.34c-.16-.42-.37-1.04-.61-1.86-.1-.38-.18-.63-.22-.75-1.09,1.07-2.25,1.87-3.5,2.41-1.24,.54-2.56,.81-3.97,.81-2.48,0-4.43-.68-5.86-2.03-1.43-1.34-2.14-3.05-2.14-5.12,0-1.36,.33-2.58,.98-3.65,.65-1.06,1.56-1.89,2.74-2.45,1.17-.57,2.87-1.06,5.08-1.49,2.98-.56,5.06-1.09,6.21-1.57v-.64c0-1.24-.3-2.13-.91-2.66-.61-.53-1.76-.79-3.45-.79-1.14,0-2.03,.23-2.66,.68-.64,.45-1.16,1.25-1.55,2.39Z"/><path class="cls-1" d="M60.69,139.58v12.37c2.07-2.46,4.56-3.7,7.44-3.7,1.48,0,2.82,.27,4.01,.82,1.19,.55,2.08,1.24,2.69,2.1,.61,.85,1.02,1.79,1.23,2.82,.23,1.03,.33,2.63,.33,4.8v14.17h-6.38v-12.75c0-2.53-.12-4.14-.37-4.82-.25-.68-.68-1.23-1.31-1.62-.62-.4-1.4-.61-2.34-.61-1.07,0-2.03,.26-2.87,.78-.85,.51-1.46,1.29-1.85,2.33-.4,1.03-.59,2.57-.59,4.6v12.1h-6.38v-33.37h6.38Z"/><path class="cls-1" d="M88.97,172.95h-6.38v-24.19h5.92v3.43c1.02-1.62,1.93-2.69,2.75-3.19,.82-.5,1.74-.75,2.77-.75,1.46,0,2.87,.4,4.22,1.2l-1.98,5.58c-1.08-.7-2.08-1.05-3.01-1.05s-1.66,.25-2.28,.74c-.62,.5-1.11,1.38-1.47,2.67-.36,1.29-.54,3.99-.54,8.1v7.46Z"/><path class="cls-1" d="M115.36,158.83c-.05-1.86-.52-3.27-1.43-4.23-.91-.97-2.01-1.45-3.32-1.45-1.39,0-2.54,.51-3.45,1.53-.91,1.02-1.35,2.41-1.34,4.16h9.53Zm-.37,6.48l6.39,1.07c-.82,2.34-2.11,4.12-3.88,5.34-1.77,1.22-3.98,1.83-6.63,1.83-4.2,0-7.32-1.37-9.33-4.12-1.59-2.21-2.39-4.99-2.39-8.35,0-4.01,1.05-7.15,3.14-9.42,2.09-2.28,4.74-3.41,7.94-3.41,3.59,0,6.42,1.19,8.51,3.57,2.07,2.38,3.07,6.02,2.97,10.93h-15.98c.05,1.9,.56,3.37,1.55,4.43,.98,1.06,2.21,1.58,3.67,1.58,1,0,1.84-.27,2.52-.82,.68-.54,1.2-1.42,1.55-2.63Z"/><path class="cls-1" d="M319.63,185.63h6.1c3.95,0,6.41-.17,7.4-.5,.98-.33,1.76-.91,2.31-1.73,.56-.82,.84-1.84,.84-3.07,0-1.38-.37-2.48-1.1-3.33-.73-.85-1.77-1.38-3.1-1.6-.67-.09-2.68-.14-6.01-.14h-6.43v10.37Zm-8.26,23.53v-40.8h17.35c4.36,0,7.53,.37,9.51,1.1,1.98,.73,3.56,2.03,4.75,3.9,1.19,1.88,1.79,4.02,1.79,6.43,0,3.07-.89,5.59-2.69,7.59-1.79,1.99-4.47,3.25-8.04,3.77,1.78,1.03,3.24,2.17,4.39,3.42,1.16,1.24,2.72,3.46,4.67,6.63l4.98,7.96h-9.85l-5.91-8.91c-2.12-3.16-3.57-5.16-4.36-5.98-.78-.82-1.6-1.39-2.48-1.69-.88-.3-2.27-.46-4.17-.46h-1.67v17.04h-8.26Z"/><path class="cls-1" d="M359.3,188.74c0,4.63,1.07,8.13,3.21,10.52,2.14,2.38,4.85,3.58,8.14,3.58s5.99-1.19,8.11-3.55c2.11-2.37,3.16-5.93,3.16-10.67s-1.03-8.18-3.09-10.48c-2.05-2.31-4.78-3.46-8.19-3.46s-6.15,1.17-8.23,3.5c-2.08,2.34-3.12,5.85-3.12,10.55m-8.49,.28c0-4.16,.63-7.65,1.87-10.49,.92-2.08,2.19-3.95,3.8-5.6,1.61-1.65,3.36-2.88,5.27-3.69,2.55-1.07,5.48-1.61,8.8-1.61,6.02,0,10.83,1.87,14.44,5.6,3.61,3.74,5.41,8.94,5.41,15.59s-1.79,11.77-5.38,15.49c-3.58,3.73-8.38,5.59-14.37,5.59s-10.9-1.85-14.48-5.57c-3.58-3.7-5.38-8.81-5.38-15.33Z"/><path class="cls-1" d="M405.11,175.26v27.01h6.13c2.29,0,3.94-.13,4.96-.39,1.34-.33,2.44-.9,3.31-1.7,.88-.8,1.6-2.11,2.15-3.93,.56-1.82,.84-4.32,.84-7.47s-.28-5.57-.84-7.26c-.55-1.69-1.33-3-2.33-3.95-1-.94-2.26-1.59-3.8-1.92-1.14-.26-3.39-.39-6.73-.39h-3.68Zm-8.26-6.9h15.02c3.39,0,5.97,.26,7.75,.78,2.38,.7,4.43,1.96,6.14,3.76,1.71,1.8,3,4,3.89,6.61,.88,2.6,1.33,5.82,1.33,9.64,0,3.36-.42,6.25-1.25,8.68-1.02,2.97-2.47,5.38-4.36,7.21-1.43,1.4-3.35,2.48-5.77,3.26-1.81,.58-4.24,.86-7.28,.86h-15.47v-40.8Z"/><polygon class="cls-1" points="438 209.17 438 168.36 468.2 168.36 468.2 175.26 446.26 175.26 446.26 184.32 466.66 184.32 466.66 191.22 446.26 191.22 446.26 202.27 469 202.27 469 209.17 438 209.17"/><polygon class="cls-1" points="476.01 209.17 476.01 168.36 484 168.36 500.79 195.71 500.79 168.36 508.43 168.36 508.43 209.17 500.18 209.17 483.64 182.35 483.64 209.17 476.01 209.17"/><path class="cls-1" d="M319.2,251.85h-5.25v-19.86c-1.92,1.8-4.18,3.13-6.78,4v-4.79c1.37-.45,2.86-1.3,4.46-2.55,1.61-1.25,2.71-2.71,3.31-4.38h4.26v27.58Z"/><path class="cls-1" d="M339.09,233.98c0-1.69-.39-3.01-1.17-3.94-.77-.93-1.67-1.4-2.69-1.4s-1.78,.38-2.41,1.15c-.65,.77-.96,2.02-.96,3.75s.35,3.06,1.05,3.89c.7,.82,1.56,1.24,2.61,1.24s1.86-.4,2.55-1.19c.69-.8,1.03-1.97,1.03-3.51m-11.84,11.51l5.1-.56c.12,1.04,.45,1.81,.96,2.31,.52,.5,1.21,.75,2.06,.75,1.08,0,1.99-.5,2.75-1.51,.75-1,1.23-3.08,1.44-6.23-1.32,1.53-2.97,2.3-4.95,2.3-2.15,0-4.02-.83-5.58-2.5-1.56-1.67-2.34-3.83-2.34-6.5s.82-5.03,2.48-6.72c1.65-1.71,3.76-2.55,6.32-2.55,2.78,0,5.06,1.08,6.84,3.23,1.78,2.16,2.68,5.7,2.68,10.64s-.93,8.65-2.78,10.87c-1.85,2.23-4.27,3.34-7.24,3.34-2.14,0-3.86-.57-5.18-1.72-1.32-1.14-2.17-2.86-2.54-5.15Z"/><path class="cls-1" d="M366.15,246.99v4.87h-18.43c.2-1.85,.8-3.6,1.79-5.25,1-1.65,2.97-3.85,5.91-6.59,2.37-2.21,3.82-3.71,4.35-4.5,.72-1.09,1.09-2.16,1.09-3.22,0-1.18-.31-2.08-.95-2.71-.63-.63-1.49-.94-2.6-.94s-1.97,.33-2.62,1c-.65,.66-1.02,1.76-1.12,3.29l-5.25-.52c.31-2.9,1.29-4.98,2.94-6.24,1.65-1.26,3.7-1.89,6.17-1.89,2.71,0,4.83,.73,6.39,2.2,1.55,1.46,2.32,3.28,2.32,5.46,0,1.24-.22,2.41-.66,3.54-.44,1.12-1.14,2.29-2.11,3.51-.63,.82-1.79,1.99-3.45,3.51-1.67,1.53-2.72,2.54-3.16,3.04-.45,.5-.8,.99-1.08,1.46h10.46Z"/><path class="cls-1" d="M387.46,246.99v4.87h-18.43c.2-1.85,.8-3.6,1.79-5.25,1-1.65,2.97-3.85,5.91-6.59,2.37-2.21,3.82-3.71,4.35-4.5,.72-1.09,1.09-2.16,1.09-3.22,0-1.18-.31-2.08-.95-2.71-.63-.63-1.49-.94-2.6-.94s-1.97,.33-2.62,1c-.64,.66-1.02,1.76-1.12,3.29l-5.25-.52c.31-2.9,1.29-4.98,2.94-6.24,1.65-1.26,3.7-1.89,6.17-1.89,2.71,0,4.83,.73,6.39,2.2,1.54,1.46,2.32,3.28,2.32,5.46,0,1.24-.22,2.41-.66,3.54-.44,1.12-1.14,2.29-2.11,3.51-.63,.82-1.79,1.99-3.45,3.51-1.67,1.53-2.72,2.54-3.16,3.04-.45,.5-.8,.99-1.08,1.46h10.46Z"/><rect class="cls-1" x="391.52" y="239.29" width="10.34" height="5.25"/><path class="cls-1" d="M421.52,246.99v4.87h-18.43c.2-1.85,.8-3.6,1.79-5.25,1-1.65,2.97-3.85,5.91-6.59,2.37-2.21,3.82-3.71,4.35-4.5,.72-1.09,1.09-2.16,1.09-3.22,0-1.18-.31-2.08-.95-2.71-.63-.63-1.49-.94-2.6-.94s-1.97,.33-2.62,1c-.65,.66-1.02,1.76-1.12,3.29l-5.25-.52c.31-2.9,1.29-4.98,2.94-6.24,1.65-1.26,3.7-1.89,6.17-1.89,2.71,0,4.83,.73,6.39,2.2,1.55,1.46,2.32,3.28,2.32,5.46,0,1.24-.22,2.41-.66,3.54-.44,1.12-1.14,2.29-2.11,3.51-.63,.82-1.79,1.99-3.45,3.51-1.67,1.53-2.72,2.54-3.16,3.04-.45,.5-.8,.99-1.08,1.46h10.46Z"/><path class="cls-1" d="M433.96,228.64c-.63,0-1.19,.2-1.67,.61-.49,.4-.88,1.13-1.14,2.18-.36,1.36-.54,3.66-.54,6.88s.16,5.45,.48,6.65c.32,1.21,.72,2.01,1.21,2.41,.49,.4,1.04,.6,1.67,.6s1.19-.2,1.68-.61c.48-.4,.87-1.13,1.14-2.18,.36-1.35,.54-3.64,.54-6.87s-.16-5.44-.48-6.65c-.32-1.21-.72-2.02-1.21-2.42-.48-.41-1.04-.61-1.67-.61m0-4.37c2.66,0,4.73,.95,6.23,2.85,1.78,2.25,2.68,5.98,2.68,11.19s-.9,8.95-2.69,11.22c-1.49,1.88-3.56,2.82-6.21,2.82s-4.82-1.03-6.45-3.08c-1.63-2.06-2.45-5.73-2.45-11s.9-8.91,2.69-11.18c1.49-1.88,3.56-2.82,6.21-2.82Z"/><path class="cls-1" d="M464.14,246.99v4.87h-18.43c.2-1.85,.8-3.6,1.79-5.25,1-1.65,2.97-3.85,5.91-6.59,2.37-2.21,3.82-3.71,4.35-4.5,.72-1.09,1.09-2.16,1.09-3.22,0-1.18-.31-2.08-.95-2.71-.63-.63-1.49-.94-2.6-.94s-1.97,.33-2.62,1c-.65,.66-1.02,1.76-1.12,3.29l-5.25-.52c.31-2.9,1.29-4.98,2.94-6.24,1.65-1.26,3.7-1.89,6.17-1.89,2.71,0,4.83,.73,6.39,2.2,1.54,1.46,2.32,3.28,2.32,5.46,0,1.24-.22,2.41-.66,3.54-.44,1.12-1.14,2.29-2.11,3.51-.63,.82-1.79,1.99-3.45,3.51-1.67,1.53-2.72,2.54-3.16,3.04-.45,.5-.8,.99-1.08,1.46h10.46Z"/><path class="cls-1" d="M485.44,246.99v4.87h-18.43c.2-1.85,.8-3.6,1.79-5.25,1-1.65,2.97-3.85,5.91-6.59,2.37-2.21,3.82-3.71,4.35-4.5,.72-1.09,1.09-2.16,1.09-3.22,0-1.18-.31-2.08-.95-2.71-.63-.63-1.49-.94-2.6-.94s-1.97,.33-2.62,1c-.65,.66-1.02,1.76-1.12,3.29l-5.25-.52c.31-2.9,1.29-4.98,2.94-6.24,1.65-1.26,3.7-1.89,6.17-1.89,2.71,0,4.83,.73,6.39,2.2,1.54,1.46,2.32,3.28,2.32,5.46,0,1.24-.22,2.41-.66,3.54-.44,1.12-1.14,2.29-2.11,3.51-.63,.82-1.79,1.99-3.45,3.51-1.67,1.53-2.72,2.54-3.16,3.04-.45,.5-.8,.99-1.08,1.46h10.46Z"/><path class="cls-1" d="M177.81,152.89l-2.06-91.86,5.21,.6c11.22,1.29,20.52,7.15,27.76,15.94,7.65,9.27,12.96,21.85,15.75,35.67,.16,.78,.3,1.53,.41,2.23,1.48,9.25,.97,20.65-3.01,30.4-4.18,10.25-12.04,18.72-25.19,21.37-.57,.12-1.11,.21-1.59,.29-3.58,.57-7.05,.54-10.52,.52-1.56-.01-3.13-.03-4.72,.03l-6.17,.2,4.13-15.4Zm7.33-81.06l1.84,82.25-1.3,4.84c2.73,.02,5.43,0,7.97-.41,.47-.08,.88-.15,1.23-.22,9.59-1.94,15.37-8.22,18.48-15.85,3.31-8.12,3.72-17.71,2.47-25.52-.11-.69-.22-1.32-.34-1.88-2.5-12.4-7.18-23.57-13.85-31.65-4.57-5.54-10.1-9.61-16.51-11.55ZM297.07,15.66c-4-4-9.53-6.47-15.63-6.47s-11.63,2.47-15.63,6.47c-4,4-6.47,9.53-6.47,15.63s2.47,11.63,6.47,15.63c4,4,9.53,6.47,15.63,6.47s11.63-2.47,15.63-6.47c4-4,6.47-9.53,6.47-15.63s-2.47-11.63-6.47-15.63Zm45.81,145.81c.25-.73,.49-1.49,.72-2.26,1.69-5.79,2.45-13.46,3.07-19.78l.03-.32c.19-1.97,.46-3.98,.72-5.98,.26-2.02,.53-4.04,.71-6,.58-6.92,1.18-13.84,1.77-20.76l7.27,15.35c1.35,2.84,2.53,5.46,3.72,8.08,2.43,5.35,4.85,10.71,7.49,15.63,2.8,5.22,5.8,9.76,8.91,13.67-2.17-.44-4.42-.65-6.73-.65-1.62,0-3.23,.1-4.83,.31-1.87-2.78-3.68-5.79-5.42-9.02-1.65-3.07-3.14-6.11-4.56-9.15-.65,6.64-1.46,14.63-3.37,21.17-.35,1.19-.72,2.35-1.13,3.46-.47,.42-.92,.86-1.36,1.31-.1,.1-.2,.21-.3,.31-1.8-2.31-4.06-4.13-6.72-5.37Zm-27.58-35.02c-.2,10.93-.4,21.97,.03,32.74h-13.14v33.78c-1.47,2.61-3.19,4.99-5.06,7.12-6.56,7.46-15.2,11.9-21.86,12.25-3.65,.19-7.56-.69-10.84-2.4-2.69-1.4-5.01-3.38-6.54-5.82-1.68-2.68-2.4-5.84-1.69-9.35,.45-2.18,1.46-4.44,3.18-6.73v-46.6c-3.86,12.26-10.29,22.02-18.91,29.39-13.52,11.56-32.26,17.02-54.79,16.85-6.1-.04-12.73-.26-19.43-.99-6.88-.75-13.91-2.04-20.7-4.25-3.8-1.23-7.59-3.4-10.28-6.84-2.28-2.92-3.71-6.64-3.63-11.33l1.61-88.98-6.02,2.33c-4.21,1.63-7.86,2.11-10.89,1.52-2-.39-3.73-1.22-5.18-2.47-1.41-1.22-2.48-2.78-3.21-4.68-1.36-3.52-1.51-8.25-.38-14.07,.45-2.33,1.1-4.35,1.92-6.19,.83-1.85,1.82-3.47,2.96-5.01,1.71-2.3,3.88-4.34,6.98-6.08,2.87-1.61,6.55-2.95,11.45-4,35.27-7.51,64.56-6.71,86.68,2.62,20.48,8.64,34.72,24.42,41.8,47.47v-11.24c0-4.41,1.91-8.41,5.2-11.5,1.51-1.42,3.32-2.63,5.37-3.6-4.02-1.59-7.63-3.98-10.63-6.99-5.66-5.66-9.16-13.49-9.16-22.12s3.5-16.46,9.16-22.13c5.66-5.66,13.49-9.16,22.13-9.16s16.46,3.5,22.13,9.16c5.66,5.66,9.16,13.49,9.16,22.13s-3.5,16.46-9.16,22.12c-1.78,1.78-3.78,3.35-5.95,4.67,2.26,.63,4.35,1.93,5.97,3.63,2.2,2.3,3.63,5.37,3.63,8.56v18.88h.63c.15-2.36,.27-4.62,.39-6.87,.56-10.65,1.11-21.16,3.9-31.86,.74-2.86,2.36-5.62,4.43-7.9,2.11-2.32,4.75-4.22,7.48-5.3,4.35-1.72,9.1-2.85,13.89-3.17,4.49-.3,9.01,.13,13.25,1.48,2.84,.9,5.18,2.74,6.89,5.07,1.73,2.35,2.82,5.23,3.14,8.12,.24,2.13,.33,4.35,.33,6.62,0,2.21-.06,4.32-.14,6.43-.1,2.71-.26,5.32-.44,7.87,4.96-7.26,10.21-13.95,17.61-20.47,6.53-5.76,13.21-9.66,19.35-11.62,6.91-2.21,13.27-2.02,18.25,.65,.59,.31,1.13,.66,1.64,1.03,3.7,2.74,5.77,7.24,6.28,12.09,.47,4.5-.4,9.43-2.56,13.48-.46,.86-.97,1.68-1.53,2.43-1.69,2.29-3.35,4.32-5.13,6.23-1.84,1.97-3.79,3.8-6.01,5.62-2.34,1.91-5.39,4.17-8.56,6.52-5.12,3.79-10.62,7.86-14.53,11.67,7.01,15.14,15.27,27.74,24.58,37.91,9.7,10.6,20.55,18.57,32.29,24.01h-13.8v3.03c-9.02-5.44-17.46-12.38-25.23-20.87-10.52-11.5-19.77-25.85-27.45-43.17l-1.19-2.69,1.93-2.19c4.45-5.05,11.48-10.26,17.96-15.06,2.91-2.15,5.69-4.22,8.21-6.27,1.95-1.6,3.61-3.14,5.12-4.76,1.57-1.68,3.01-3.45,4.48-5.44,.31-.41,.58-.84,.81-1.29,1.3-2.43,1.82-5.45,1.52-8.24-.26-2.43-1.13-4.57-2.62-5.67-.17-.12-.33-.23-.49-.31-2.74-1.47-6.63-1.45-11.15,0-4.96,1.59-10.49,4.87-16.08,9.79-9.47,8.35-15.26,17.28-21.92,27.56-1.39,2.14-2.8,4.31-3.85,5.91l-9.37,14.18,.98-16.96c.22-3.89,.51-7.31,.79-10.76,.41-4.98,.83-10.03,1-14.53,.08-2.09,.15-4.15,.14-6.07v-.02c0-1.85-.09-3.72-.3-5.63-.15-1.33-.64-2.65-1.42-3.71-.6-.82-1.37-1.45-2.26-1.73-3.13-.99-6.52-1.31-9.91-1.08-3.77,.25-7.57,1.16-11.09,2.56-1.44,.57-2.88,1.62-4.07,2.93-1.14,1.25-2,2.67-2.35,4.03-2.54,9.78-3.07,19.83-3.61,30.03-.2,3.88-.41,7.79-.69,11.33l-.33,4.25h-18.32v-28.06c0-.77-.41-1.58-1.05-2.24-.66-.69-1.49-1.16-2.28-1.2-3.43-.19-6.27-.26-8.88-.18-2.57,.08-5,.31-7.66,.74-3.06,.49-5.58,1.67-7.3,3.28-1.46,1.36-2.3,3.05-2.3,4.83v22.84h-15.6l-.85-3.52c-5.64-23.29-18.67-38.94-38.08-47.13-20.34-8.58-47.78-9.21-81.22-2.09-3.93,.84-6.77,1.85-8.87,3.03-1.87,1.05-3.14,2.23-4.11,3.54-.77,1.04-1.43,2.11-1.96,3.29-.53,1.19-.96,2.55-1.28,4.18-.8,4.12-.82,7.16-.09,9.04,.19,.48,.41,.83,.67,1.06,.21,.18,.52,.32,.91,.39,1.37,.27,3.33-.07,5.87-1.05l29.13-11.25-10.23,14.14h0c-.06,.08-.14,.28-.22,.53-.1,.3-.16,.53-.16,.63l-1.65,91.28c-.04,2.37,.62,4.19,1.69,5.55,1.41,1.8,3.61,3.01,5.9,3.75,6.14,1.99,12.54,3.17,18.83,3.86,6.47,.71,12.75,.91,18.49,.95,20.33,.15,37.03-4.6,48.8-14.66,11.08-9.47,17.96-23.84,19.55-43.47l.35-4.23h14.12v75.21s-1.14,1.29-1.14,1.29c-1.3,1.49-2,2.8-2.23,3.93-.2,.99,.01,1.9,.5,2.68,.63,1.01,1.7,1.89,2.99,2.56,1.86,.97,4.08,1.47,6.14,1.36,4.46-.23,10.53-3.54,15.44-9.13,4.04-4.6,7.16-10.69,7.79-17.85v-60.06h17.44c-.05,3.43-.1,6.86-.16,10.29Z"/></g></svg>