<svg xmlns="http://www.w3.org/2000/svg" viewBox="0 0 85.01 85"><defs><style>.cls-1{fill:#006400;}</style></defs><g id="Ebene_2" data-name="Ebene 2"><g id="Ebene_1-2" data-name="Ebene 1"><path class="cls-1" d="M84.9,45.37c.06-.95.11-1.9.11-2.86a42.34,42.34,0,0,0-11.19-28.7.36.36,0,0,0-.07-.1l-.07-.05A42.51,42.51,0,0,0,54,1.58a.37.37,0,0,0-.14,0,42.22,42.22,0,0,0-22.74,0,.42.42,0,0,0-.16,0A42.65,42.65,0,0,0,10.62,14.44l-.06,0a1.46,1.46,0,0,0-.21.28,42.44,42.44,0,0,0,20.51,68.6.62.62,0,0,0,.23.07,42.27,42.27,0,0,0,22.79,0,.45.45,0,0,0,.11,0,42.58,42.58,0,0,0,30.9-37.92A.49.49,0,0,0,84.9,45.37ZM78.68,60.88a18.42,18.42,0,0,1-6.86.34c.24-4.63.28-9.55.15-14.64l7.27-9A22.25,22.25,0,0,1,83,45.4,40.25,40.25,0,0,1,78.68,60.88ZM1.91,42.77a55.81,55.81,0,0,1,3.8-5.31L13,46.58c-.14,5.1-.09,10,.14,14.64a18.42,18.42,0,0,1-6.86-.34A40.56,40.56,0,0,1,1.91,42.77Zm8.23-22.92L9.69,21c-2.27,5.71-4.07,10.26-4.8,14.57a28.16,28.16,0,0,0-2.83,3.57A40.41,40.41,0,0,1,10,18.22C10,18.72,10.08,19.25,10.14,19.85ZM6.79,35.75c.71-4.07,2.47-8.51,4.67-14.07l.42-1.05A62.29,62.29,0,0,1,24.59,14.8c2.34,2.53,4.7,5.34,7.37,8.75l-5.1,15-12.58,6.5ZM41.85,22.53l-8.35-.11c-2.66-3.4-5-6.21-7.36-8.76l6.92-8.31,9.31-.3,9.57.29,6.93,8.32C56.54,16.2,54.18,19,51.5,22.42ZM56.23,38.89,42.5,48.81,28.77,38.89l4.94-14.56,8,.11H42l9.29-.11Zm-41.29,8,12.62-6.51,14,10.1V65.09A65.89,65.89,0,0,1,28.1,70.81a68.46,68.46,0,0,1-13-9.2C14.87,57,14.81,52,14.94,46.88ZM42.49,66.75a66.7,66.7,0,0,0,13.19,5.68L52.27,80l-9.72.21L32.73,80l-3.41-7.55A66.46,66.46,0,0,0,42.49,66.75Zm1-1.65V50.47l14-10.1,12.62,6.51c.13,5.13.07,10.08-.18,14.73a68.15,68.15,0,0,1-13,9.2A65.24,65.24,0,0,1,43.46,65.1ZM58.14,38.58l-5.1-15c2.68-3.42,5-6.22,7.37-8.75a62,62,0,0,1,12.71,5.83l.42,1.05c2.21,5.57,4,10,4.68,14.1l-7.49,9.3ZM83,40.06a21.68,21.68,0,0,0-2.89-4.44c-.72-4.33-2.54-8.9-4.82-14.65l-.44-1.12a15.29,15.29,0,0,0,0-1.8A40.4,40.4,0,0,1,83,40.06Zm-10.61-25A9.21,9.21,0,0,1,73,18.31,69,69,0,0,0,60.7,12.88L53.59,4.34l.49-.74A40.66,40.66,0,0,1,72.41,15.09Zm-20.27-12-.23.36L42.4,3.14h-.07l-9.26.3-.25-.35A40.1,40.1,0,0,1,42.5,1.91,40.84,40.84,0,0,1,52.14,3.07Zm-21.29.55.54.75-7.08,8.51a68.51,68.51,0,0,0-12.4,5.49,9.68,9.68,0,0,1,0-2.49A40.7,40.7,0,0,1,30.85,3.62ZM7.53,63.08a23.64,23.64,0,0,0,6.35,0,69.73,69.73,0,0,0,13.39,9.46L31,80.88l-.27.48A40.77,40.77,0,0,1,7.53,63.08ZM32.72,81.89l9.8.21h0l9.71-.21a40.45,40.45,0,0,1-19.56,0Zm21.51-.53L54,80.88l3.78-8.36a70,70,0,0,0,13.39-9.46,23.56,23.56,0,0,0,6.34,0A40.77,40.77,0,0,1,54.23,81.36Z"/></g></g></svg>