<svg xmlns="http://www.w3.org/2000/svg" viewBox="0 0 74.39 85"><defs><style>.cls-1{fill:#fff;}</style></defs><g id="Ebene_2" data-name="Ebene 2"><g id="Ebene_1-2" data-name="Ebene 1"><path class="cls-1" d="M66.41,10.63H58.46v-8A2.67,2.67,0,0,0,55.78,0h-5.3a2.66,2.66,0,0,0-2.65,2.65v8H26.57v-8A2.67,2.67,0,0,0,23.91,0h-5.3a2.67,2.67,0,0,0-2.68,2.65v8H8a8,8,0,0,0-8,8v8H74.39v-8A8,8,0,0,0,66.41,10.63ZM10.63,65.74a2,2,0,0,1,2-2h6.63a2,2,0,0,1,2,2v6.65a2,2,0,0,1-2,2H12.63a2,2,0,0,1-2-2Zm0-21.24a2,2,0,0,1,2-2h6.63a2,2,0,0,1,2,2v6.63a2,2,0,0,1-2,2H12.63a2,2,0,0,1-2-2ZM31.89,65.74a2,2,0,0,1,2-2h6.65a2,2,0,0,1,2,2v6.65a2,2,0,0,1-2,2H33.87a2,2,0,0,1-2-2Zm0-21.24a2,2,0,0,1,2-2h6.65a2,2,0,0,1,2,2v6.63a2,2,0,0,1-2,2H33.87a2,2,0,0,1-2-2ZM53.13,65.74a2,2,0,0,1,2-2h6.63a2,2,0,0,1,2,2v6.65a2,2,0,0,1-2,2H55.13a2,2,0,0,1-2-2Zm0-21.24a2,2,0,0,1,2-2h6.63a2,2,0,0,1,2,2v6.63a2,2,0,0,1-2,2H55.13a2,2,0,0,1-2-2ZM0,77a8,8,0,0,0,8,8H66.41a8,8,0,0,0,8-8V31.87H0Z"/></g></g></svg>