<svg xmlns="http://www.w3.org/2000/svg" viewBox="0 0 76.39 87"><defs><style>.cls-1{fill:#006400;}</style></defs><g id="Ebene_2" data-name="Ebene 2"><g id="Ebene_1-2" data-name="Ebene 1"><path class="cls-1" d="M67.41,87H9a9,9,0,0,1-9-9V31.87H76.39V78A9,9,0,0,1,67.41,87ZM2,33.87V78a7,7,0,0,0,7,7H67.41a7,7,0,0,0,7-7V33.87ZM62.76,76.39H56.13a3,3,0,0,1-3-3V66.74a3,3,0,0,1,3-3h6.63a3,3,0,0,1,3,3v6.65A3,3,0,0,1,62.76,76.39ZM56.13,65.76a1,1,0,0,0-1,1v6.65a1,1,0,0,0,1,1h6.63a1,1,0,0,0,1-1V66.74a1,1,0,0,0-1-1ZM41.52,76.39H34.87a3,3,0,0,1-3-3V66.74a3,3,0,0,1,3-3h6.65a3,3,0,0,1,3,3v6.65A3,3,0,0,1,41.52,76.39ZM34.87,65.76a1,1,0,0,0-1,1v6.65a1,1,0,0,0,1,1h6.65a1,1,0,0,0,1-1V66.74a1,1,0,0,0-1-1ZM20.26,76.39H13.63a3,3,0,0,1-3-3V66.74a3,3,0,0,1,3-3h6.63a3,3,0,0,1,3,3v6.65A3,3,0,0,1,20.26,76.39ZM13.63,65.76a1,1,0,0,0-1,1v6.65a1,1,0,0,0,1,1h6.63a1,1,0,0,0,1-1V66.74a1,1,0,0,0-1-1ZM62.76,55.13H56.13a3,3,0,0,1-3-3V45.5a3,3,0,0,1,3-3h6.63a3,3,0,0,1,3,3v6.63A3,3,0,0,1,62.76,55.13ZM56.13,44.5a1,1,0,0,0-1,1v6.63a1,1,0,0,0,1,1h6.63a1,1,0,0,0,1-1V45.5a1,1,0,0,0-1-1ZM41.52,55.13H34.87a3,3,0,0,1-3-3V45.5a3,3,0,0,1,3-3h6.65a3,3,0,0,1,3,3v6.63A3,3,0,0,1,41.52,55.13ZM34.87,44.5a1,1,0,0,0-1,1v6.63a1,1,0,0,0,1,1h6.65a1,1,0,0,0,1-1V45.5a1,1,0,0,0-1-1ZM20.26,55.13H13.63a3,3,0,0,1-3-3V45.5a3,3,0,0,1,3-3h6.63a3,3,0,0,1,3,3v6.63A3,3,0,0,1,20.26,55.13ZM13.63,44.5a1,1,0,0,0-1,1v6.63a1,1,0,0,0,1,1h6.63a1,1,0,0,0,1-1V45.5a1,1,0,0,0-1-1ZM76.39,28.57H0v-9a9,9,0,0,1,9-9h7v-7A3.67,3.67,0,0,1,19.61,0h5.3a3.66,3.66,0,0,1,3.66,3.65v7H47.83v-7A3.65,3.65,0,0,1,51.48,0h5.3a3.67,3.67,0,0,1,3.68,3.65v7h6.95a9,9,0,0,1,9,9ZM2,26.57H74.39v-7a7,7,0,0,0-7-7H58.46v-9A1.66,1.66,0,0,0,56.78,2h-5.3a1.65,1.65,0,0,0-1.65,1.65v9H26.57v-9A1.66,1.66,0,0,0,24.91,2h-5.3a1.67,1.67,0,0,0-1.68,1.65v9H9a7,7,0,0,0-7,7Z"/></g></g></svg>