<svg xmlns="http://www.w3.org/2000/svg" viewBox="0 0 76.39 87"><defs><style>.cls-1{fill:none;stroke:#fff;stroke-miterlimit:10;stroke-width:2px;}</style></defs><g id="Ebene_2" data-name="Ebene 2"><g id="Ebene_1-2" data-name="Ebene 1"><path class="cls-1" d="M67.41,11.63H59.46v-8A2.67,2.67,0,0,0,56.78,1h-5.3a2.66,2.66,0,0,0-2.65,2.65v8H27.57v-8A2.67,2.67,0,0,0,24.91,1h-5.3a2.67,2.67,0,0,0-2.68,2.65v8H9a8,8,0,0,0-8,8v8H75.39v-8A8,8,0,0,0,67.41,11.63ZM11.63,66.74a2,2,0,0,1,2-2h6.63a2,2,0,0,1,2,2v6.65a2,2,0,0,1-2,2H13.63a2,2,0,0,1-2-2Zm0-21.24a2,2,0,0,1,2-2h6.63a2,2,0,0,1,2,2v6.63a2,2,0,0,1-2,2H13.63a2,2,0,0,1-2-2ZM32.89,66.74a2,2,0,0,1,2-2h6.65a2,2,0,0,1,2,2v6.65a2,2,0,0,1-2,2H34.87a2,2,0,0,1-2-2Zm0-21.24a2,2,0,0,1,2-2h6.65a2,2,0,0,1,2,2v6.63a2,2,0,0,1-2,2H34.87a2,2,0,0,1-2-2ZM54.13,66.74a2,2,0,0,1,2-2h6.63a2,2,0,0,1,2,2v6.65a2,2,0,0,1-2,2H56.13a2,2,0,0,1-2-2Zm0-21.24a2,2,0,0,1,2-2h6.63a2,2,0,0,1,2,2v6.63a2,2,0,0,1-2,2H56.13a2,2,0,0,1-2-2ZM1,78a8,8,0,0,0,8,8H67.41a8,8,0,0,0,8-8V32.87H1Z"/></g></g></svg>