<svg xmlns="http://www.w3.org/2000/svg" viewBox="0 0 138.96 85"><defs><style>.cls-1{fill:#4BB05A;}</style></defs><g id="Ebene_2" data-name="Ebene 2"><g id="Ebene_1-2" data-name="Ebene 1"><path class="cls-1" d="M68.16,85A7.18,7.18,0,0,1,63,82.81l-.09-.11c-1.32-1.83-.51-3.6,0-4.77a5.4,5.4,0,0,0,.61-2.13V49.54a1.54,1.54,0,0,0-.45-1.3,1.31,1.31,0,0,0-1.17.09,1.13,1.13,0,0,0-.38.81,27.27,27.27,0,0,1-4.64,14.18,24.11,24.11,0,0,1-12.73,9.33c-8.72,2.81-18,2.79-28.46-.06-3.87-1.07-5.35-3.09-5.28-7.21V65c.2-11.57.41-23.53.72-35.28a28.09,28.09,0,0,1,.54-3.22l-.22.06L9,27.3l-1,.28c-1.49.42-3,.86-4.6,1.16S.62,28.15.21,26.36v0a9.48,9.48,0,0,1,6.69-11,70.64,70.64,0,0,1,28.19-1.78,28.7,28.7,0,0,1,23.19,16.7,35.17,35.17,0,0,1,2.12,5.84l0,.15a.78.78,0,0,0,.78.7h.22a6.53,6.53,0,0,1,1.53,0,.93.93,0,0,0,.62-.08s.15-.16.13-.74V30.29c-.14-2.28.61-5.26,5-6.17a35.43,35.43,0,0,1,6.79-.66,4.22,4.22,0,0,1,4.61,4.18c0,.14,0,.29,0,.43v8.06c0,.8,0,.8.77.82a8,8,0,0,0,2.77-.13A8,8,0,0,0,84,34.05c.37-4.58.8-8.7,1.31-12.6a7.78,7.78,0,0,1,6.93-7.18,23,23,0,0,1,5.38-.22c3.34.27,5,2.19,4.93,5.53s-.32,6.91-.53,10.28c-.09,1.6-.19,3.2-.28,4.8,0,.12,0,.24,0,.36.69-1,1.39-2.06,2.08-3.1,2.17-3.25,4.42-6.62,7-9.71a28.22,28.22,0,0,1,6-5c.61-.42,1.22-.84,1.82-1.27l.1-.07a8.91,8.91,0,0,1,3.24-1,5.41,5.41,0,0,1,5.44,1.4,5.51,5.51,0,0,1,.82,5.69,14.35,14.35,0,0,1-3.4,5.41,70.31,70.31,0,0,1-5.8,4.88c-.94.73-1.87,1.46-2.78,2.21a38.77,38.77,0,0,0-3.59,3.19,1.32,1.32,0,0,0-.22,1,61.79,61.79,0,0,0,14.08,20.09,34.51,34.51,0,0,0,10.29,7.16,3.48,3.48,0,0,1,2.15,1.94,3.53,3.53,0,0,1-.81,2.84c-2.59,3.87-8.44,5.76-13.9,4.49-7.45-1.75-13.2-6.26-17.57-13.81A77.35,77.35,0,0,1,103,54c-.54-1.2-1.08-2.4-1.64-3.58-.06-.14-.13-.28-.2-.42-.26.86-.47,1.72-.66,2.6-.25,1.67-.45,3.44-.64,5.15-.15,1.3-.29,2.6-.47,3.89-.77,5.92-3.44,9.93-8.14,12.25a5.34,5.34,0,0,1-5.36,0,5.72,5.72,0,0,1-2.57-5c-.1-6.53-.17-13-.2-19.32a10.54,10.54,0,0,0,0-1.24c-.27,0-.82,0-1.25,0a7.79,7.79,0,0,0-1.9.11,15.57,15.57,0,0,0,0,1.87c0,2.36,0,4.68,0,7,0,4.56,0,9.27,0,13.9a14.89,14.89,0,0,1-10.4,13.68l-.14,0A7.68,7.68,0,0,1,68.16,85Zm-3.72-3.5A5.29,5.29,0,0,0,69,83a12.94,12.94,0,0,0,9-11.85c.08-4.59,0-9.29,0-13.84,0-2.32,0-4.65,0-7,0-1.73,0-2.66.65-3.31s1.58-.66,3.26-.66c2.78,0,3.23.47,3.23,3.24,0,6.27.1,12.77.21,19.3a3.87,3.87,0,0,0,1.64,3.34,3.46,3.46,0,0,0,3.46-.09c4.13-2,6.38-5.45,7.08-10.75.17-1.29.31-2.57.46-3.86.19-1.73.4-3.52.66-5.28a35.42,35.42,0,0,1,1.23-4.43l.21-.61,1.78-.12.31.54c.33.59.71,1.28,1,2,.57,1.19,1.11,2.4,1.65,3.61a77.32,77.32,0,0,0,3.52,7.2c4.09,7.06,9.43,11.27,16.32,12.89,4.63,1.08,9.72-.5,11.84-3.68.6-.89.56-1.16.55-1.2s-.1-.28-1.07-.7a36.49,36.49,0,0,1-10.86-7.55,63.58,63.58,0,0,1-14.53-20.78l-.05-.14a3.3,3.3,0,0,1,.58-2.86l.07-.09A40.66,40.66,0,0,1,115,32.91c.9-.74,1.85-1.48,2.79-2.22A69.84,69.84,0,0,0,123.38,26a12.31,12.31,0,0,0,2.92-4.67,3.63,3.63,0,0,0-.41-3.73,3.59,3.59,0,0,0-3.61-.8l-.12,0a6.67,6.67,0,0,0-2.52.79c-.59.43-1.19.84-1.8,1.26a26.7,26.7,0,0,0-5.55,4.61c-2.46,3-4.69,6.34-6.84,9.56-.91,1.36-1.82,2.73-2.75,4.07-.18.25-.37.46-.55.67a3.33,3.33,0,0,0-.25.28l-1.11,1.29-.56-1.6a8,8,0,0,1-.42-3.19c.09-1.58.19-3.19.28-4.79.21-3.36.41-6.82.53-10.23.07-2.3-.83-3.32-3.13-3.51a20.78,20.78,0,0,0-5,.21,5.86,5.86,0,0,0-5.24,5.42c-.51,3.94-.93,8-1.3,12.57s-.75,4.83-5.13,4.71c-1.86-.06-2.74-1-2.74-2.78V27.9a2.11,2.11,0,0,0,0-.26,2.28,2.28,0,0,0-2.5-2.24h-.11a33.59,33.59,0,0,0-6.46.63c-2.54.52-3.57,1.78-3.42,4.19v5.82a2.76,2.76,0,0,1-.74,2.19,2.63,2.63,0,0,1-2.16.6,5.06,5.06,0,0,0-1.1,0l-.45,0a2.73,2.73,0,0,1-2.71-2.38,34.33,34.33,0,0,0-2-5.46A26.78,26.78,0,0,0,34.85,15.46,68.74,68.74,0,0,0,7.4,17.18a7.52,7.52,0,0,0-5.29,8.74c.24,1,.6.95.88.9,1.49-.28,3-.71,4.43-1.12l1-.29c.82-.23,1.64-.48,2.48-.73.62-.19,1.25-.38,1.9-.56l1.72-.5L14,25.34a24.13,24.13,0,0,0-.92,4.5c-.3,11.66-.51,23.62-.72,35.19v.39c-.06,3.22.84,4.46,3.84,5.29,10,2.75,19,2.77,27.35.07a22.12,22.12,0,0,0,11.71-8.56,25.35,25.35,0,0,0,4.29-13.16,3.1,3.1,0,0,1,1.25-2.35l.15-.09a3.18,3.18,0,0,1,3.15,0,3.33,3.33,0,0,1,1.37,3V75.87a7.38,7.38,0,0,1-.8,2.92C64.1,80.06,63.93,80.75,64.44,81.5Z"/><path class="cls-1" d="M70.78,21.42a10.13,10.13,0,0,1-10.05-10.1c0-.22,0-.45,0-.67a9.62,9.62,0,0,1,2.36-7.1A11.31,11.31,0,0,1,71,0a10.37,10.37,0,0,1,7.3,3.16,9.88,9.88,0,0,1,3.36,6.71h0C81.61,17.71,76,21.35,70.78,21.42ZM71.29,2h-.24a9.38,9.38,0,0,0-6.48,2.89,7.65,7.65,0,0,0-1.86,5.75v.13c0,.2,0,.39,0,.59a8.16,8.16,0,0,0,8.08,8.15c4.27-.06,8.88-3.09,8.88-9.59h0A7.87,7.87,0,0,0,76.9,4.59,8.6,8.6,0,0,0,71.29,2Z"/><path class="cls-1" d="M29,68.07q-.32,0-.63,0h0A2,2,0,0,1,27,67.3a2.16,2.16,0,0,1-.22-1.74,28.07,28.07,0,0,0,1-6.05c-.06-8.15-.23-16.5-.38-24.58l-.15-7.57c0-1.93,0-3,.77-3.61s1.89-.31,3.66.22a17.77,17.77,0,0,1,8.92,6.81c5.69,7.7,7.92,15.83,6.59,24.15s-6.84,13.2-15.12,13h-.92c-.33,0-.67,0-1,0S29.39,68.07,29,68.07Zm-.39-2a9.29,9.29,0,0,0,1.37,0c.38,0,.77,0,1.14,0h.94c7.33.15,12-3.9,13.17-11.4,1.26-7.89-.79-15.32-6.26-22.71a15.78,15.78,0,0,0-7.92-6.08,13.57,13.57,0,0,0-1.83-.46,14.4,14.4,0,0,0,0,1.95l.14,7.57c.16,8.08.32,16.44.38,24.67A29.36,29.36,0,0,1,28.64,66,.2.2,0,0,0,28.63,66.1Z"/></g></g></svg>