<?xml version="1.0" encoding="UTF-8"?><svg id="Ebene_2" xmlns="http://www.w3.org/2000/svg" viewBox="0 0 685.53 482.24"><defs><style>.cls-1{fill:#fff;}</style></defs><g id="Ebene_1-2"><g><g id="Ebene_2-2"><g id="Ebene_1-2"><path class="cls-1" d="M303.61,48.42C301.86,18,325.39,1.4,349.9,.04c22.26-1.12,48.19,23.78,48.09,44.48,0,33.69-23.34,52.38-49.26,52.77-25.01-.32-45.15-20.63-45.26-45.65,0-1.03,.05-2.1,.15-3.22ZM150.71,329.92h4.88c39.69,.78,64.35-22.31,70.45-61.03,6.98-43.94-6.49-82.51-32.17-117.17-10.12-14.95-24.82-26.2-41.89-32.08-15.92-4.88-16.11-4.3-15.87,12.16,.98,53.7,2.25,107.41,2.64,161.11-.58,10.48-2.34,20.86-5.22,30.95-.93,4.2,0,6.05,3.95,6.54s8.98-.49,13.23-.49Zm347.7-94.17c-2.42,6.96-4.4,14.07-5.91,21.29-2.29,15.13-3.61,30.37-5.61,45.55-3.32,25.29-13.86,45.55-38.03,57.46-18.36,9.23-32.56-3.76-32.56-20.5-.49-32.22-.83-64.39-1.03-96.52,0-11.08,0-11.28-11.28-11.33q-14.65,0-14.65,14.94c0,34.81,.59,69.57,0,104.18-1.11,29.47-20.67,55.03-48.82,63.81-10.07,1.65-20.3-1.75-27.39-9.08-4.88-6.49-2.29-12.55,.63-18.94,2.04-3.82,3.25-8.03,3.56-12.35V242.67c0-10.06-6.54-14.65-15.57-10.2-2.44,1.97-3.89,4.92-3.95,8.06-.91,24.42-8.64,48.09-22.31,68.35-14.78,21.34-36.34,37.06-61.17,44.62-46.48,14.99-93.05,12.4-139.48-.29-17.28-4.88-23.09-13.04-22.75-31.25,1.03-59.41,2.05-118.88,3.61-178.24,.89-7.93,2.53-15.76,4.88-23.39-7.57,2.2-14.65,4.49-21.97,6.49-9.13,2.59-18.21,5.37-27.53,7.13-5.76,1.07-8.84-2.1-10.2-8.2-4.48-21.79,8.59-43.35,29.98-49.46,45.25-12.19,92.48-15.16,138.89-8.74,49.13,4.92,91.91,35.63,112.29,80.6,4.26,9.17,7.71,18.69,10.3,28.46,.45,4.48,4.24,7.88,8.74,7.86h1.66c2.17-.24,4.37-.24,6.54,0,6.49,.59,9.37-2.39,9.18-9.08v-28.9c-.98-15.87,7.52-23.29,21.04-26.07,10.87-2.13,21.92-3.21,33-3.22h1.71c8.94-.05,16.25,7.12,16.35,16.06v42.52c0,6.49,2.2,8.79,8.59,8.98,19.53,.54,19.53,.68,20.94-18.99,1.71-20.99,3.81-41.79,6.54-62.69,1.1-16.49,13.84-29.83,30.27-31.68,8.6-1.38,17.34-1.74,26.02-1.07,14.01,1.12,20.6,8.3,20.11,22.6-.83,25.09-2.64,50.14-4,75.23-.38,4.71,.24,9.45,1.81,13.91,1.22-1.46,2.59-2.78,3.71-4.3,15.92-22.95,30.56-46.92,48.19-68.35,9.76-12.3,24.75-20.85,37.88-30.37,4.51-2.59,9.49-4.25,14.65-4.88,19.53-4.88,32.71,9.42,25.87,28.95-3.39,9.5-8.86,18.13-16.01,25.24-13.04,12.6-28.32,23.43-42.52,35.1-6.53,5.09-12.73,10.61-18.55,16.5-2.23,2.84-2.99,6.57-2.05,10.06,16.78,38.62,41.13,73.48,71.62,102.52,15.22,15.33,33.11,27.77,52.77,36.71,9.76,4.2,10.5,8.06,4.88,16.7-12.11,18.11-40.03,26.07-64.35,20.41-39.06-9.18-65.52-33.64-84.65-66.69-9.76-17.33-17.38-36.27-26.02-54.43-1.51-3.22-3.32-6.59-4.88-9.47l-2.98-.05Z"/></g></g><g><g><path class="cls-1" d="M370.71,453.53l-3.47,4c-2.11-1.75-4.27-2.61-6.79-2.61s-4.18,1.08-4.18,3.06,1.17,2.79,6.03,4.32c5.89,1.89,9.27,4.32,9.27,10.08s-4.59,9.85-12.37,9.85c-5.4,0-9.27-1.98-11.83-4.45l3.78-4.14c2.2,1.98,4.72,3.11,7.83,3.11s4.95-1.44,4.95-3.83-1.17-3.33-5.71-4.72c-6.97-2.16-9.54-5.04-9.54-9.67,0-5.49,4.77-9,11.25-9,4.77,0,8.05,1.39,10.8,4Z"/><path class="cls-1" d="M396.09,477.47l-1.49,4.63c-2.83-.22-4.68-1.08-5.76-3.46-1.71,2.66-4.36,3.6-7.2,3.6-4.77,0-7.78-3.1-7.78-7.47,0-5.22,3.96-8.05,11.2-8.05h2.43v-1.03c0-2.83-1.12-3.69-4.05-3.69-1.53,0-3.87,.45-6.25,1.26l-1.62-4.68c3.01-1.12,6.3-1.75,9-1.75,6.93,0,9.9,2.92,9.9,8.46v9.27c0,1.84,.5,2.52,1.62,2.92Zm-8.6-2.61v-4.23h-1.75c-3.24,0-4.81,1.12-4.81,3.51,0,1.89,1.03,3.01,2.79,3.01s2.92-.85,3.78-2.29Z"/><path class="cls-1" d="M420.75,477.47l-1.48,4.63c-2.83-.22-4.68-1.08-5.76-3.46-1.71,2.66-4.37,3.6-7.2,3.6-4.77,0-7.79-3.1-7.79-7.47,0-5.22,3.96-8.05,11.21-8.05h2.43v-1.03c0-2.83-1.12-3.69-4.05-3.69-1.53,0-3.87,.45-6.25,1.26l-1.62-4.68c3.01-1.12,6.3-1.75,9-1.75,6.93,0,9.9,2.92,9.9,8.46v9.27c0,1.84,.49,2.52,1.62,2.92Zm-8.59-2.61v-4.23h-1.76c-3.24,0-4.81,1.12-4.81,3.51,0,1.89,1.04,3.01,2.79,3.01s2.92-.85,3.78-2.29Z"/><path class="cls-1" d="M440.15,457.22l-1.12,6.88c-.76-.18-1.35-.32-2.16-.32-2.97,0-4.18,2.21-4.95,5.85v11.83h-7.11v-23.89h6.21l.58,4.63c1.08-3.33,3.42-5.31,6.17-5.31,.9,0,1.62,.09,2.38,.32Z"/><path class="cls-1" d="M450.95,476.62c.36,0,.85-.09,1.17-.23l1.39,5.04c-1.21,.5-2.92,.81-4.59,.81-3.96,0-6.3-2.34-6.3-6.75v-27.4l7.11-.76v27.45c0,1.35,.45,1.85,1.21,1.85Z"/><path class="cls-1" d="M477.81,469.55c0,7.65-4.41,12.69-11.7,12.69s-11.7-4.68-11.7-12.73,4.41-12.69,11.7-12.69,11.7,4.68,11.7,12.73Zm-16.02-.04c0,5.31,1.44,7.51,4.32,7.51s4.32-2.29,4.32-7.47-1.44-7.51-4.32-7.51-4.32,2.29-4.32,7.47Z"/><path class="cls-1" d="M496.04,481.48l-.31-3.01c-1.75,2.52-4.1,3.78-7.25,3.78-4.46,0-6.66-2.88-6.66-7.51v-17.14h7.11v16.24c0,2.43,.81,3.15,2.29,3.15s2.83-.99,3.87-2.79v-16.6h7.11v23.89h-6.17Z"/><path class="cls-1" d="M515.52,449.03c0,2.29-1.75,4.05-4.23,4.05s-4.18-1.75-4.18-4.05,1.71-4.05,4.18-4.05,4.23,1.75,4.23,4.05Zm-7.74,32.44v-23.89h7.11v23.89h-7.11Z"/><path class="cls-1" d="M537.66,459.74l-2.61,4.05c-1.84-1.21-3.82-1.89-5.67-1.89-2.16,0-3.1,.72-3.1,1.8,0,1.26,.63,1.8,4.9,3.06,4.73,1.35,7.38,3.33,7.38,7.61,0,4.95-4.68,7.87-10.62,7.87-4.14,0-7.65-1.44-9.99-3.55l3.51-3.92c1.75,1.44,3.96,2.38,6.25,2.38s3.51-.81,3.51-2.2c0-1.67-.72-2.16-5.04-3.38-4.72-1.35-7.07-3.78-7.07-7.47,0-4.09,3.74-7.29,9.76-7.29,3.46,0,6.57,1.12,8.78,2.92Z"/><path class="cls-1" d="M555.75,464.65v5.49h-14.35v-5.49h14.35Z"/><path class="cls-1" d="M568.04,469.55v11.92h-7.38v-31.18h10.21c8.46,0,12.82,3.01,12.82,9.49,0,4.09-1.93,6.57-5.98,8.42l7.92,13.27h-8.32l-6.39-11.92h-2.88Zm3.1-5.08c3.24,0,4.95-1.39,4.95-4.68,0-3.01-1.75-4.32-5.4-4.32h-2.66v9h3.1Z"/><path class="cls-1" d="M609.21,469.55c0,7.65-4.41,12.69-11.7,12.69s-11.7-4.68-11.7-12.73,4.41-12.69,11.7-12.69,11.7,4.68,11.7,12.73Zm-16.02-.04c0,5.31,1.44,7.51,4.32,7.51s4.32-2.29,4.32-7.47-1.44-7.51-4.32-7.51-4.32,2.29-4.32,7.47Z"/><path class="cls-1" d="M634.86,481.48h-6.3l-.36-2.79c-1.39,1.98-3.55,3.55-6.79,3.55-6.08,0-9.09-5.04-9.09-12.78s3.73-12.64,9.9-12.64c2.21,0,4.14,.86,5.54,2.25v-11.74l7.11,.76v33.39Zm-7.11-7.15v-10.3c-1.08-1.26-2.12-2.03-3.69-2.03-2.56,0-4.36,2.16-4.36,7.51,0,5.94,1.62,7.51,3.96,7.51,1.66,0,2.97-.9,4.09-2.7Z"/><path class="cls-1" d="M660.69,471.62h-14.8c.5,4.27,2.52,5.44,5.45,5.44,1.93,0,3.64-.67,5.71-2.11l2.93,3.96c-2.39,1.89-5.45,3.33-9.32,3.33-7.96,0-12.01-5.13-12.01-12.6s3.92-12.82,11.16-12.82c6.84,0,11.02,4.5,11.02,12.24,0,.77-.04,1.85-.13,2.57Zm-6.84-4.59c-.04-3.24-1.04-5.49-3.87-5.49-2.38,0-3.78,1.53-4.09,5.8h7.96v-.31Z"/><path class="cls-1" d="M685.53,464.02v17.46h-7.11v-16.24c0-2.52-.85-3.2-2.25-3.2-1.57,0-2.88,1.12-4.14,3.11v16.33h-7.11v-23.89h6.21l.49,2.83c2.03-2.38,4.32-3.6,7.29-3.6,4.14,0,6.62,2.66,6.62,7.2Z"/></g><rect class="cls-1" y="464.39" width="331" height="6"/></g></g></g></svg>