<svg xmlns="http://www.w3.org/2000/svg" viewBox="0 0 140.23 85"><defs><style>.cls-1{fill:#fff;}</style></defs><g id="Ebene_2" data-name="Ebene 2"><g id="Ebene_1-2" data-name="Ebene 1"><path class="cls-1" d="M62.19,9.91C61.83,3.68,66.65.28,71.67,0c4.56-.23,9.87,4.87,9.85,9.11,0,6.9-4.78,10.73-10.09,10.81a9.39,9.39,0,0,1-9.27-9.35C62.16,10.36,62.17,10.14,62.19,9.91ZM30.87,67.57h1C40,67.73,45.05,63,46.3,55.07c1.43-9-1.33-16.9-6.59-24a17.07,17.07,0,0,0-8.58-6.57c-3.26-1-3.3-.88-3.25,2.49.2,11,.46,22,.54,33a28.89,28.89,0,0,1-1.07,6.34c-.19.86,0,1.24.81,1.34S30,67.57,30.87,67.57Zm71.22-19.29a35.25,35.25,0,0,0-1.21,4.36c-.47,3.1-.74,6.22-1.15,9.33-.68,5.18-2.84,9.33-7.79,11.77-3.76,1.89-6.67-.77-6.67-4.2q-.15-9.9-.21-19.77c0-2.27,0-2.31-2.31-2.32-3,0-3,0-3,3.06,0,7.13.12,14.25,0,21.34a14.25,14.25,0,0,1-10,13.07,6.37,6.37,0,0,1-5.61-1.86c-1-1.33-.47-2.57.13-3.88A6.35,6.35,0,0,0,65,76.65V49.7c0-2.06-1.34-3-3.19-2.09A2.18,2.18,0,0,0,61,49.26a26.82,26.82,0,0,1-4.57,14A23.61,23.61,0,0,1,43.9,72.4c-9.52,3.07-19.06,2.54-28.57-.06-3.54-1-4.73-2.67-4.66-6.4.21-12.17.42-24.35.74-36.51a26.1,26.1,0,0,1,1-4.79c-1.55.45-3,.92-4.5,1.33-1.87.53-3.73,1.1-5.64,1.46C1.09,27.65.46,27,.18,25.75A8.71,8.71,0,0,1,6.32,15.62a71.66,71.66,0,0,1,28.45-1.79,28.35,28.35,0,0,1,23,16.51,35.28,35.28,0,0,1,2.11,5.83,1.79,1.79,0,0,0,1.79,1.61l.34,0a6,6,0,0,1,1.34,0c1.33.12,1.92-.49,1.88-1.86V30c-.2-3.25,1.54-4.77,4.31-5.34A35.22,35.22,0,0,1,76.3,24l.35,0A3.33,3.33,0,0,1,80,27.29c0,.13,0,.26,0,.39V36c0,1.33.45,1.8,1.76,1.84,4,.11,4,.14,4.29-3.89.35-4.3.78-8.56,1.34-12.84a7,7,0,0,1,6.2-6.49,22.64,22.64,0,0,1,5.33-.22c2.87.23,4.22,1.7,4.12,4.63-.17,5.14-.54,10.27-.82,15.41a6.91,6.91,0,0,0,.37,2.85c.25-.3.53-.57.76-.88,3.26-4.7,6.26-9.61,9.87-14,2-2.52,5.07-4.27,7.76-6.22a8,8,0,0,1,3-1c4-1,6.7,1.93,5.3,5.93A13.85,13.85,0,0,1,126,26.29c-2.67,2.58-5.8,4.8-8.71,7.19a39.37,39.37,0,0,0-3.8,3.38,2.35,2.35,0,0,0-.42,2.06,64.52,64.52,0,0,0,14.67,21,36.54,36.54,0,0,0,10.81,7.52c2,.86,2.15,1.65,1,3.42-2.48,3.71-8.2,5.34-13.18,4.18-8-1.88-13.42-6.89-17.34-13.66-2-3.55-3.56-7.43-5.33-11.15-.31-.66-.68-1.35-1-1.94Z"/></g></g></svg>