<svg fill="none" height="360" width="480" xmlns="http://www.w3.org/2000/svg" xmlns:xlink="http://www.w3.org/1999/xlink"><linearGradient id="a" gradientUnits="userSpaceOnUse" x1="328.81" x2="505.393" y1="424.032" y2="26.048"><stop offset="0" stop-color="#00ab55"/><stop offset="1" stop-color="#00ab55" stop-opacity=".01"/></linearGradient><linearGradient id="b" gradientUnits="userSpaceOnUse" x1="135.297" x2="182.109" y1="97.623" y2="144.436"><stop offset="0" stop-color="#ffe16a"/><stop offset="1" stop-color="#b78103"/></linearGradient><filter id="c" color-interpolation-filters="sRGB" filterUnits="userSpaceOnUse" height="277.611" width="394.621" x="51" y="49"><feFlood flood-opacity="0" result="BackgroundImageFix"/><feColorMatrix in="SourceAlpha" values="0 0 0 0 0 0 0 0 0 0 0 0 0 0 0 0 0 0 127 0"/><feOffset dx="8" dy="8"/><feGaussianBlur stdDeviation="6"/><feColorMatrix values="0 0 0 0 0 0 0 0 0 0 0 0 0 0 0 0 0 0 0.12 0"/><feBlend in2="BackgroundImageFix" result="effect1_dropShadow"/><feBlend in="SourceGraphic" in2="effect1_dropShadow" result="shape"/></filter><path clip-rule="evenodd" d="m0 198.781c0 41.457 14.945 79.235 39.539 107.785 28.214 32.765 69.128 53.365 114.734 53.434a148.458 148.458 0 0 0 56.495-11.036c9.051-3.699 19.182-3.274 27.948 1.107a75.774 75.774 0 0 0 33.957 8.011c5.023 0 9.942-.495 14.7-1.434 13.581-2.67 25.94-8.99 36.089-17.94 6.379-5.627 14.548-8.456 22.898-8.446h.142c27.589 0 53.215-8.732 74.492-23.696 19.021-13.36 34.554-31.696 44.904-53.225 9.022-18.76 14.102-39.953 14.102-62.383 0-76.931-59.774-139.305-133.498-139.305-7.516 0-14.88.663-22.063 1.899-19.021-32.132-53.084-53.552-91.941-53.552a103.647 103.647 0 0 0 -45.879 10.661c-13.24 6.487-25.011 15.705-34.641 26.939-32.697.544-62.93 11.69-87.675 30.291-38.952 29.264-64.303 76.991-64.303 130.89z" fill="url(#a)" fill-rule="evenodd" opacity=".2"/><g filter="url(#c)"><circle cx="182.109" cy="97.623" fill="#ffc107" opacity=".15" r="44.623"/><circle cx="182.109" cy="97.623" fill="url(#b)" r="23.406"/><path clip-rule="evenodd" d="m244.878 306.611c34.56 0 62.575-28.016 62.575-62.575 0-34.56-28.015-62.576-62.575-62.576-34.559 0-62.575 28.016-62.575 62.576 0 34.559 28.016 62.575 62.575 62.575zm0-23.186c21.754 0 39.389-17.635 39.389-39.389 0-21.755-17.635-39.39-39.389-39.39s-39.389 17.635-39.389 39.39c0 21.754 17.635 39.389 39.389 39.389z" fill="#005249" fill-rule="evenodd"/><g fill="#00ab55"><path clip-rule="evenodd" d="m174.965 264.592c0-4.133-1.492-5.625-5.637-5.625h-11.373v-66.611c0-4.476-1.492-5.637-5.638-5.637h-9.172a9.866 9.866 0 0 0 -7.948 3.974l-55.03 68.274a11.006 11.006 0 0 0 -1.957 6.787v5.968c0 4.145 1.492 5.637 5.625 5.637h54.676v21.707c0 4.133 1.492 5.625 5.625 5.625h8.12c4.146 0 5.638-1.492 5.638-5.625v-21.707h11.434c4.414 0 5.637-1.492 5.637-5.637zm-72.42-5.625 35.966-44.415v44.415zm309.062 5.625c0-4.133-1.492-5.625-5.638-5.625h-11.422v-66.611c0-4.476-1.492-5.637-5.637-5.637h-9.111a9.87 9.87 0 0 0 -7.949 3.974l-55.03 68.274a11.011 11.011 0 0 0 -1.981 6.787v5.968c0 4.145 1.492 5.637 5.626 5.637h54.687v21.707c0 4.133 1.492 5.625 5.626 5.625h8.12c4.145 0 5.637-1.492 5.637-5.625v-21.707h11.434c4.476 0 5.638-1.492 5.638-5.637zm-72.42-5.625 35.965-44.415v44.415z" fill-rule="evenodd"/><path d="m425.621 117.222a8.267 8.267 0 0 0 -9.599-8.157 11.129 11.129 0 0 0 -9.784-5.87h-.403a13.23 13.23 0 0 0 -20.365-14.078 13.23 13.23 0 0 0 -5.316 14.078h-.403a11.153 11.153 0 1 0 0 22.293h38.68v-.073a8.279 8.279 0 0 0 7.19-8.193zm-321.363 81.823a7.093 7.093 0 0 0 -7.093-7.092c-.381.007-.761.039-1.138.097a9.552 9.552 0 0 0 -8.425-5.026h-.343a11.348 11.348 0 1 0 -22.012 0h-.342a9.564 9.564 0 1 0 0 19.114h33.177v-.061a7.107 7.107 0 0 0 6.176-7.032z" opacity=".24"/></g></g></svg>