<svg xmlns="http://www.w3.org/2000/svg" viewBox="0 0 88.65 85"><defs><style>.cls-1{fill:#28cc64;fill-rule:evenodd;}</style></defs><g id="Ebene_2" data-name="Ebene 2"><g id="Ebene_1-2" data-name="Ebene 1"><path class="cls-1" d="M88.56,48c-2.46-9.12-9.77-36.33-12.35-45.9a2.81,2.81,0,0,0-4.95-1h0C61.32,14.16,54.64,19.4,34.67,24.68L2,33.6a1.11,1.11,0,0,0-.78.76c-3,10-.71,19,6.7,26.56a1.13,1.13,0,0,0,.79.33,1,1,0,0,0,.25,0l10.53-2.38.13.64a4.41,4.41,0,0,0,1.67,2.65l2.06,1.56a2.34,2.34,0,0,1,.81,1.22l4.38,16.77a4.47,4.47,0,0,0,2.54,3,4.55,4.55,0,0,0,1.77.36A4.49,4.49,0,0,0,35,84.47L37.83,83A4.5,4.5,0,0,0,40.06,78L37.2,65.74a2.22,2.22,0,0,1,.09-1.3l1.5-3.95A4.47,4.47,0,0,0,39,57.88l-1.11-4.71L41.71,52a1.15,1.15,0,0,0,.4-.12c19-5,26.53-5.57,42.92-.42a2.8,2.8,0,0,0,2.78-.68A2.86,2.86,0,0,0,88.56,48ZM9.12,58.91C2.72,52.11.79,44.47,3.23,35.58l4.38-1.2C6.88,42.59,9,49.87,14.28,57.75Zm27.67-.52a2.25,2.25,0,0,1-.09,1.31l-1.49,3.95A4.4,4.4,0,0,0,35,66.24l2.86,12.28A2.27,2.27,0,0,1,36.78,81L34,82.5a2.22,2.22,0,0,1-3.21-1.39L26.35,64.35a4.6,4.6,0,0,0-1.61-2.43l-2.07-1.56A2.25,2.25,0,0,1,21.84,59l-.15-.74,14-4.45Zm49.45-9.25a.56.56,0,0,1-.56.14c-16.6-5.21-24.78-4.63-43.61.26A33.93,33.93,0,0,1,36,26.64C55.86,21.28,63,15.58,73,2.46a.57.57,0,0,1,.58-.22.6.6,0,0,1,.45.42C76.63,12.23,84,39.44,86.4,48.56A.57.57,0,0,1,86.24,49.14Z"/></g></g></svg>