<?xml version="1.0" encoding="UTF-8"?><svg xmlns="http://www.w3.org/2000/svg" viewBox="0 0 88.99 116.68"><defs><style>.d{fill:#010200;}.e{fill:#fdf1b9;}.f{fill:#b6ddbc;}.g{fill:#48b867;}</style></defs><g id="a"/><g id="b"><g id="c"><path class="g" d="M43.24,69.37c.02-1.59,.06-3.18,.08-4.78,.04-5.29,.1-10.57,.22-15.86,.1-4.2,.23-8.39,.38-12.59l.05-.05c0-1.15,.01-2.29,.02-3.44l.09-.04,.09,.04c.01,1.15,.02,2.3,.03,3.44l.04,.05c.28,7.47,.52,14.94,.58,22.41,.01,1.52,.01,3.04,.02,4.56,.07,4.87,.1,9.74,.07,14.62,0,.78,.02,1.55,.02,2.33,.02,4.46-.06,26.76-.06,31.22,0,.24-.35,.36-.72,.37-.42,.01-.87-.12-.87-.39,0-4.91-.04-27.67-.04-32.59-.02-3.1-.03-6.2,0-9.29Z"/><path class="e" d="M51.12,40.61s9.07-6.72,17.68-2.18c8.61,4.54,9.96,22.04,9.96,22.04,0,0-12.64,1.81-20.6-5.77-7.67-7.3-7.03-14.09-7.03-14.09Z"/><path class="g" d="M48.64,41.03c1.64-.69,3.47-.86,5.25-.69,.36-.08,.75-.08,1.11-.11,.43-.03,.85-.06,1.28-.1,.88-.07,1.76-.12,2.65-.19,1.79-.13,3.58-.24,5.37-.42v.11c-1.75,.23-3.51,.48-5.29,.66-.91,.09-1.82,.19-2.74,.25-.22,.02-.44,.04-.66,.06,.27,.06,.54,.12,.81,.2,1.42,.4,2.79,.98,4.11,1.67,.72,.13,1.42,.33,2.12,.49,1.12,.26,2.24,.55,3.36,.85,2.2,.58,4.38,1.23,6.57,1.86l-.03,.11c-2.18-.54-4.38-1.03-6.57-1.55-1.06-.25-2.13-.5-3.19-.76-.28-.07-.55-.13-.83-.19,2.44,1.5,4.64,3.43,6.45,5.61,1.8,2.17,3.24,4.54,4.48,7.06l-.1,.06c-1.47-2.57-3.31-4.99-5.42-7.11,.04,.12,.08,.24,.12,.36,.17,.53,.34,1.07,.5,1.6,.34,1.07,.68,2.13,.99,3.21l-.11,.03c-.38-1.03-.74-2.08-1.11-3.12-.18-.51-.36-1.02-.54-1.53-.09-.26-.18-.53-.27-.8l-.09-.24c-1.02-.99-2.09-1.91-3.22-2.74-1.49-1.1-3.11-2.03-4.81-2.76,.03,.16,.06,.31,.09,.46,.09,.41,.18,.83,.27,1.24,.18,.86,.35,1.72,.51,2.58,.34,1.75,.55,3.53,.88,5.29l-.11,.03c-.41-1.77-.93-3.5-1.33-5.27-.2-.88-.4-1.77-.58-2.66-.09-.41-.17-.83-.25-1.24-.05-.23-.1-.46-.13-.69-.16-.07-.33-.14-.49-.2-2.38-.88-5.01-1.52-7.54-1.03-2.43,.47-4.51,2.09-5.46,4.37-.08,.2-.39,.07-.35-.13,.49-2.18,2.31-3.8,4.31-4.63Z"/><path class="f" d="M62.53,48.5c.26,1.15,.51,2.3,.77,3.45,.24,1.1,.54,2.23,.63,3.35h-.07c-.37-1.07-.55-2.25-.77-3.37-.22-1.13-.44-2.27-.67-3.4l.11-.03Z"/><path class="f" d="M71.3,51.42c1.15,.58,2.27,1.25,3.48,1.73l-.05,.1c-1.16-.58-2.36-1.09-3.46-1.79l.03-.04Z"/><path class="e" d="M43.96,30.43s-10.43-3.81-12.21-12.58S35.23,0,35.23,0c0,0,10.09,5.98,12.21,12.64,2.12,6.67-3.48,17.79-3.48,17.79Z"/><path class="g" d="M44.33,42.54c.13-1.24,.16-2.5,.22-3.75,.06-1.2,.08-2.4,.07-3.59-.01-2.45-.14-4.89-.41-7.32-.17-1.55-.42-3.08-.69-4.61,.06-.19,.11-.38,.16-.58,.09-.33,.18-.67,.27-1,.18-.69,.35-1.38,.53-2.07,.38-1.5,.7-3.02,1.1-4.52l-.11-.04c-.4,1.47-.88,2.93-1.29,4.4-.2,.72-.42,1.44-.61,2.17-.07,.26-.14,.53-.21,.79-.56-2.94-1.27-5.85-2.16-8.72-.12-.39-.25-.77-.38-1.15,0-.09,0-.18,0-.27,.01-.23,.02-.45,.03-.68,.03-.47,.06-.94,.09-1.4,.06-.92,.16-1.83,.3-2.74h-.11c-.16,.91-.31,1.83-.43,2.76-.06,.45-.1,.9-.13,1.35v.23c-.69-1.98-1.44-3.94-2.22-5.89l-.11,.04c1.46,3.88,2.49,7.91,3.32,11.97-.21-.19-.44-.36-.67-.52-.72-.49-1.46-.95-2.2-1.4-1.56-.94-3.12-1.87-4.65-2.85l-.07,.09c1.44,1,2.84,2.04,4.24,3.09,.66,.49,1.34,.96,2.02,1.43,.56,.39,1.06,.83,1.56,1.29,.06,.31,.13,.61,.19,.92,.27,1.41,.5,2.83,.71,4.25-.31-.22-.63-.44-.95-.66-.72-.5-1.44-.98-2.17-1.46-1.44-.94-2.87-1.88-4.24-2.9l-.07,.09c1.39,1.05,2.74,2.15,4.1,3.23,.66,.52,1.33,1.03,2,1.53,.34,.25,.68,.5,1.02,.74,.15,.1,.28,.21,.42,.28,.42,3.05,.74,6.13,.92,9.2,.08,1.35,.13,2.71,.17,4.06,.04,1.39-.02,2.77-.03,4.16,0,.28,.41,.34,.44,.05Z"/><path class="f" d="M44.19,14.65c.23-1.05,.45-2.11,.66-3.17h-.11c-.23,1.02-.46,2.06-.71,3.08-.25,1.02-.53,2.05-.67,3.1h.03c.36-.96,.58-2,.8-3.01Z"/><path class="f" d="M38.39,11.77c-.37-.44-.78-.85-1.19-1.26-.21-.21-.43-.42-.64-.64-.11-.11-.22-.22-.32-.33-.11-.12-.26-.23-.35-.38-.05-.09-.16,.02-.09,.07,.14,.09,.25,.25,.36,.37,.1,.11,.21,.23,.31,.34,.2,.22,.4,.44,.6,.66,.39,.43,.8,.87,1.24,1.25l.08-.08Z"/><path class="e" d="M39.07,60.19s-1.79,12.43-11.14,16.78c-9.35,4.35-20.74,0-20.74,0,0,0,4.48-26.89,31.88-16.78Z"/><path class="g" d="M13.63,68.89c.86-.1,1.72-.24,2.57-.4,.42-.08,.84-.16,1.26-.24,.21-.04,.43-.09,.66-.13,.25-.24,.5-.47,.76-.7,1.77-1.56,3.69-2.94,5.72-4.14,1.1-.66,2.25-1.24,3.43-1.76h-.18c-1.03,.05-2.05,.09-3.08,.14-2.05,.1-4.1,.14-6.15,.27v-.12c2.06-.14,4.11-.36,6.16-.54,1-.09,1.99-.18,2.99-.27,.51-.05,1.03-.09,1.54-.13,.13-.01,.26-.03,.4-.04,.53-.2,1.07-.39,1.61-.56,2.56-.79,5.3-1.11,7.92-.44,2.35,.6,4.7,2.14,5.31,4.62l-.15,.06c-.88-2.07-3.18-3.11-5.25-3.55-1.4-.29-2.82-.27-4.23-.08-.06,.64-.3,1.29-.47,1.88-.26,.88-.51,1.75-.78,2.62-.53,1.75-1.11,3.48-1.63,5.23l-.11-.03c.43-1.74,.8-3.51,1.22-5.25,.21-.86,.42-1.72,.64-2.57,.14-.55,.25-1.2,.47-1.77-.82,.14-1.63,.34-2.43,.57-1.44,.42-2.85,.95-4.24,1.55-.14,.89-.34,1.76-.54,2.64-.26,1.1-.54,2.18-.89,3.26l-.1-.03,.04-.2h0c.21-1.02,.43-2.03,.65-3.05,.17-.82,.33-1.64,.51-2.46-1.16,.52-2.3,1.09-3.41,1.72-.02,.25-.09,.51-.12,.74-.07,.43-.14,.85-.22,1.28-.18,.96-.37,1.92-.6,2.86-.44,1.82-.94,3.65-1.61,5.41v.07l-.05,.06-.09-.06c.43-1.84,.93-3.67,1.33-5.52,.2-.92,.41-1.85,.59-2.77,.09-.46,.18-.93,.26-1.39,.02-.13,.04-.27,.07-.41-1.26,.75-2.48,1.55-3.64,2.43-1.99,1.51-3.9,3.22-5.57,5.09l-.14-.11c.71-.94,1.42-1.85,2.23-2.72,.47-.5,.96-.99,1.45-1.47l-.16,.03c-.44,.07-.88,.14-1.32,.2-.86,.12-1.73,.2-2.6,.3l-.03-.11Z"/><path class="f" d="M20.2,73.1c.01-.11,.03-.22,.05-.32,.03-.14,.09-.27,.11-.41h0c.19-.83,.35-1.67,.5-2.51l.1,.02c-.04,1.11-.31,2.21-.71,3.24h-.07v-.02Z"/><path class="f" d="M28.02,72.9l.06-.05c.26-1.1,.51-2.2,.74-3.31,.12-.58,.24-1.17,.35-1.75,.06-.31,.12-.63,.17-.94,.05-.27,.07-.56,.2-.81l.1,.02c.08,.52-.14,1.15-.23,1.67-.11,.61-.23,1.21-.37,1.82-.27,1.23-.58,2.45-.92,3.65l-.12-.02,.02-.27Z"/><path class="f" d="M14.48,65.31c1.71-.23,3.41-.48,5.12-.69l.03,.11c-1.7,.25-3.42,.46-5.12,.69l-.03-.11Z"/><path class="d" d="M65.67,116.68c-3.45,0-6.91-.03-10.36-.05-2.94-.02-5.88-.05-8.82-.05v-.03c0-.06-.01-.11-.05-.14-.14-.14-.77-.38-1.31-.38-.35,0-.67,.1-.81,.4-.02,.04-.03,.08-.03,.13v.02c-14.66,0-29.34-.06-43.99-.47-.17,0-.27-.11-.29-.24,0-.02,0-.05,0-.07,0-.15,.1-.31,.3-.32,2.03-.05,4.07-.09,6.11-.14,.54-1.48,1.36-2.58,2.84-3.27,.84-.39,1.78-.58,2.71-.58,.26,0,.51,.01,.76,.04,.59,.07,2.22,.84,2.76,.84,.03,0,.06,0,.09-.01,.49-.13,1.02-1.51,1.53-1.93,.62-.52,1.29-.8,2.09-.95,.34-.06,.67-.09,.99-.09,1.31,0,2.53,.48,3.66,1.13,1.34-2.6,3.93-5.26,6.4-5.26,.91,0,1.8,.36,2.61,1.22,1.57-1.49,3.28-2.6,5.21-2.6,.5,0,1.02,.07,1.55,.24,1.12-5.63,6.84-9.09,12.48-9.09,.69,0,1.37,.05,2.05,.16,4.87,.76,8.64,4.86,8.64,9.36,0,1.11-.23,2.24-.73,3.35,.42-.02,.85-.04,1.27-.04,3.92,0,7.77,1.15,8.95,5.03,1.26-.98,2.63-1.39,4.04-1.39,2.96,0,6.05,1.81,8.45,3.85,1.34,.07,2.68,.14,4.03,.24,.13,0,.19,.1,.19,.2s-.06,.19-.19,.2c-.16,.01-.33,.02-.49,.03-.29-.18-.59-.3-.75-.3-.03,0-.05,0-.07,.01-.09,.04-.2,.18-.27,.37-7.16,.46-14.36,.57-21.55,.57Z"/></g></g></svg>